<?xml version="1.0" standalone="no"?>
<!DOCTYPE svg PUBLIC "-//W3C//DTD SVG 20010904//EN"
 "http://www.w3.org/TR/2001/REC-SVG-20010904/DTD/svg10.dtd">
<svg version="1.0" xmlns="http://www.w3.org/2000/svg"
 width="300.000000pt" height="300.000000pt" viewBox="0 0 300.000000 300.000000"
 preserveAspectRatio="xMidYMid meet">
<metadata>
Created by potrace 1.14, written by Peter Selinger 2001-2017
</metadata>
<g transform="translate(0.000000,300.000000) scale(0.100000,-0.100000)"
fill="#000000" stroke="none">
<path d="M1824 2824 c-34 -8 -109 -87 -99 -104 10 -16 -1 -12 -53 21 -42 26
-53 29 -72 19 -36 -19 -40 -48 -20 -125 2 -5 -3 -25 -10 -43 -10 -28 -16 -33
-35 -28 -33 8 -72 -15 -70 -42 3 -39 -10 -24 -27 31 -9 28 -22 66 -29 82 -7
17 -14 39 -16 50 -8 43 -38 90 -60 93 -25 4 -73 -34 -73 -57 0 -10 -9 -4 -22
15 -51 72 -168 102 -239 62 -20 -11 -46 -37 -58 -58 -18 -32 -23 -52 -30 -111
-1 -3 -21 -5 -45 -5 -77 -1 -124 -57 -102 -121 6 -17 14 -35 19 -39 13 -13 8
-21 -32 -47 l-39 -26 -15 22 c-13 19 -23 22 -88 22 -66 0 -78 -3 -116 -30 -49
-35 -83 -98 -87 -158 -2 -45 -12 -70 -25 -62 -15 9 -74 -39 -81 -66 -10 -35
11 -92 37 -103 17 -8 20 -16 16 -42 -3 -20 1 -40 11 -56 15 -23 15 -26 -4 -43
-11 -10 -20 -22 -20 -26 0 -16 118 -125 206 -190 50 -37 91 -73 92 -81 6 -67
12 -99 25 -129 20 -48 100 -141 236 -274 267 -260 269 -262 269 -310 0 -20 5
-42 11 -48 9 -9 3 -14 -21 -23 -34 -11 -51 -36 -63 -91 -6 -28 -2 -37 24 -63
16 -17 44 -33 61 -37 28 -5 31 -9 25 -32 -13 -49 -16 -66 -22 -116 -3 -27 -12
-59 -19 -70 -20 -28 -17 -34 14 -30 25 3 30 -1 41 -31 14 -40 60 -78 119 -98
23 -8 55 -25 71 -37 42 -31 113 -29 185 5 30 14 60 26 66 26 19 0 94 42 113
63 9 11 17 26 17 34 0 7 8 13 18 14 9 0 34 21 56 45 l38 44 -41 37 c-41 37
-87 100 -79 108 5 5 45 13 69 14 26 1 60 37 64 68 2 15 4 30 5 33 2 3 2 8 2
11 -8 63 -28 93 -67 103 -14 4 -22 12 -20 19 2 6 6 36 8 65 3 30 12 62 23 75
10 12 104 108 210 212 186 184 264 277 264 316 0 24 28 49 130 115 104 68 163
99 223 118 17 6 17 7 0 30 -10 14 -29 31 -43 38 -13 7 -33 21 -43 31 -10 10
-22 15 -27 12 -5 -3 -11 -1 -14 4 -4 5 9 19 28 30 41 26 70 82 61 119 -10 40
-49 87 -88 105 -32 16 -33 18 -31 70 1 30 5 69 9 86 3 17 6 34 5 37 -1 4 2 10
7 13 5 3 13 17 19 31 18 40 -4 52 -86 49 -39 -1 -72 0 -74 2 -2 2 -7 21 -10
43 -10 60 -8 59 -81 40 -50 -12 -101 -51 -125 -94 -5 -8 -12 -11 -16 -7 -5 4
-3 16 4 25 36 51 71 140 66 167 -3 17 -9 32 -15 33 -5 2 -9 10 -9 17 0 17 -42
26 -98 21 l-43 -3 -30 64 c-16 35 -36 66 -44 69 -8 4 -13 10 -10 15 3 4 -12
20 -34 35 -40 26 -102 38 -147 28z m-599 -2112 c3 -8 3 -17 1 -19 -7 -8 -76
18 -76 27 0 16 69 8 75 -8z m629 -4 c-3 -4 2 -8 10 -8 9 0 16 -5 16 -11 0 -5
-4 -7 -10 -4 -5 3 -10 1 -10 -4 0 -6 -6 -11 -14 -11 -8 0 -16 -4 -18 -9 -1 -5
-20 -12 -41 -15 -33 -5 -38 -4 -35 11 3 13 12 17 33 16 22 -2 26 0 15 7 -11 7
-11 10 -2 10 7 0 11 4 8 9 -4 5 0 11 6 14 20 7 47 4 42 -5z"/>
</g>
</svg>
